<svg id="visual" viewBox="0 0 900 600" width="900" height="600" xmlns="http://www.w3.org/2000/svg" xmlns:xlink="http://www.w3.org/1999/xlink" version="1.1"><rect x="0" y="0" width="900" height="600" fill="#001220"></rect><path d="M0 449L21.5 446.3C43 443.7 86 438.3 128.8 431.3C171.7 424.3 214.3 415.7 257.2 419.3C300 423 343 439 385.8 443.5C428.7 448 471.3 441 514.2 440.3C557 439.7 600 445.3 642.8 444.5C685.7 443.7 728.3 436.3 771.2 432.2C814 428 857 427 878.5 426.5L900 426L900 601L878.5 601C857 601 814 601 771.2 601C728.3 601 685.7 601 642.8 601C600 601 557 601 514.2 601C471.3 601 428.7 601 385.8 601C343 601 300 601 257.2 601C214.3 601 171.7 601 128.8 601C86 601 43 601 21.5 601L0 601Z" fill="#fa7268"></path><path d="M0 503L21.5 496.2C43 489.3 86 475.7 128.8 476.8C171.7 478 214.3 494 257.2 499.2C300 504.3 343 498.7 385.8 496.7C428.7 494.7 471.3 496.3 514.2 496.2C557 496 600 494 642.8 493.2C685.7 492.3 728.3 492.7 771.2 489C814 485.3 857 477.7 878.5 473.8L900 470L900 601L878.5 601C857 601 814 601 771.2 601C728.3 601 685.7 601 642.8 601C600 601 557 601 514.2 601C471.3 601 428.7 601 385.8 601C343 601 300 601 257.2 601C214.3 601 171.7 601 128.8 601C86 601 43 601 21.5 601L0 601Z" fill="#e34c67"></path><path d="M0 554L21.5 548.5C43 543 86 532 128.8 531.8C171.7 531.7 214.3 542.3 257.2 542.7C300 543 343 533 385.8 533C428.7 533 471.3 543 514.2 542C557 541 600 529 642.8 529C685.7 529 728.3 541 771.2 542.7C814 544.3 857 535.7 878.5 531.3L900 527L900 601L878.5 601C857 601 814 601 771.2 601C728.3 601 685.7 601 642.8 601C600 601 557 601 514.2 601C471.3 601 428.7 601 385.8 601C343 601 300 601 257.2 601C214.3 601 171.7 601 128.8 601C86 601 43 601 21.5 601L0 601Z" fill="#c62368"></path></svg>